<svg xmlns="http://www.w3.org/2000/svg" xmlns:xlink="http://www.w3.org/1999/xlink" version="1.1" id="Layer_1" x="0px" y="0px" width="100px" height="100px" viewBox="5.0 -10.0 100.0 135.0" enable-background="new 0 0 100 100" xml:space="preserve">
<g>
	<path stroke="#000000" stroke-miterlimit="10" d="M78.557,43.555c0.938,3.566,1.45,7.366,1.45,11.315   c0,0.459-0.015,0.914-0.026,1.368l4.633,1.809l3.844-3.177l2.93,3.469l-5.754,4.757l-6-2.419   c-0.686,5.298-2.292,10.216-4.613,14.507l0.826-1.117l4.506,2.567l4.271-2.584l2.385,3.854l-6.396,3.871l-7.055-4.123   C68.042,86.217,59.498,91.721,49.9,91.721c-9.575,0-18.1-5.478-23.614-14.007l-6.948,4.062l-6.397-3.871l2.385-3.854l4.272,2.584   l4.506-2.568l0.321,0.435c-2.116-4.106-3.59-8.757-4.245-13.745l-5.812,2.342l-5.754-4.757l2.929-3.469l3.843,3.177l4.438-1.73   c-0.016-0.481-0.03-0.961-0.03-1.445c0-3.952,0.514-7.755,1.455-11.323l-7.5-0.277l-3.268-6.678l4.114-1.969l2.183,4.46   l5.194,0.247l0.092,1.498c3.11-9.226,9.191-16.562,16.785-20.236c0.144-2.829,2.49-5.087,5.388-5.087H56.83   c2.99,0,5.415,2.398,5.415,5.357c0,0.129-0.03,0.251-0.038,0.378c7.146,3.924,12.811,11.155,15.697,20.107l0.123-2.016l5.195-0.247   l2.182-4.46l4.113,1.969l-3.268,6.678L78.557,43.555z"/>
	<polygon stroke="#000000" stroke-miterlimit="10" points="65.141,10.77 64.541,12.358 63.63,12.764 61.707,13.292 60.104,14.259    57.837,15.504 57.837,14.259 60.385,12.452 62.245,11.891 63.882,10.77 64.824,8.901 66.65,8.279 66.146,10.022  "/>
	<polygon stroke="#000000" stroke-miterlimit="10" points="39.357,13.292 37.436,12.764 36.524,12.358 35.925,10.77 34.918,10.022    34.413,8.279 36.24,8.901 37.184,10.77 38.82,11.891 40.679,12.452 43.229,14.259 43.229,15.504 40.962,14.259  "/>
</g>
<text x="0.0" y="117.5" font-size="5.0" font-weight="bold" font-family="Helvetica Neue, Helvetica, Arial-Unicode, Arial, Sans-serif" fill="#000000">Created by Andrey Semenenko</text><text x="0.0" y="122.5" font-size="5.0" font-weight="bold" font-family="Helvetica Neue, Helvetica, Arial-Unicode, Arial, Sans-serif" fill="#000000">from the Noun Project</text></svg>